<?xml version="1.0" standalone="no"?>
<!DOCTYPE svg PUBLIC "-//W3C//DTD SVG 20010904//EN"
 "http://www.w3.org/TR/2001/REC-SVG-20010904/DTD/svg10.dtd">
<svg version="1.0" xmlns="http://www.w3.org/2000/svg"
 width="500.000000pt" height="500.000000pt" viewBox="0 0 500.000000 500.000000"
 preserveAspectRatio="xMidYMid meet">
<metadata>
Created by potrace 1.11, written by Peter Selinger 2001-2013
</metadata>
<g transform="translate(0.000000,500.000000) scale(0.100000,-0.100000)"
fill="#000000" stroke="none">
<path d="M625 2500 l0 -2000 675 0 675 0 0 486 c0 267 4 488 8 491 5 3 192 6
415 8 224 1 427 6 452 9 25 4 79 12 120 17 112 16 302 63 418 104 337 120 600
320 768 582 75 117 158 315 178 423 3 14 10 50 16 80 30 151 32 407 4 567 -37
212 -136 451 -244 587 -235 297 -511 469 -915 571 -72 18 -150 36 -175 39 -44
6 -64 9 -160 23 -25 4 -538 8 -1140 10 l-1095 4 0 -2001z m2065 931 c41 -12
95 -34 119 -48 55 -32 126 -104 150 -152 63 -124 71 -304 20 -435 -56 -140
-190 -235 -370 -262 -60 -8 -616 -12 -627 -4 -4 3 -8 214 -7 469 l0 463 320
-5 c291 -4 327 -6 395 -26z"/>
</g>
</svg>
